# xmcd
#
# Track frame offsets:
#	150
#	18456
#	26448
#	40884
#	50716
#	62570
#	73225
#	84628
#	101882
#	127991
#	139485
#	151641
#	166046
#	191475
#	204887
#	229341
#	251990
#	261818
#	272167
#
# Disc length: 3883 seconds
#
# Revision: 1
# Processed by: cddbd v1.5.2PL0 Copyright (c) Steve Scherf et al.
# Submitted via: audiograbber 1.83.01
#
DISCID=100f2913
DTITLE=James Cotton - Feelin' Good
DYEAR=1900
DGENRE=Blues
TTITLE0=V-8 Ford Blues
TTITLE1=Polly Put the Kettle On
TTITLE2=So Glad I'm Living (So Glad You're Mine)
TTITLE3=Diggin' My Potatoes
TTITLE4=Three Harp Boogie (South Side Boogie)
TTITLE5=Turn on Your Lovelight
TTITLE6=Good Time Charlie
TTITLE7=Something on Your Mind
TTITLE8=Don't Start Me Talkin'
TTITLE9=Jelly, Jelly
TTITLE10=Off the Wall
TTITLE11=Feelin' Good
TTITLE12=Sweet Sixteen
TTITLE13=Knock on Wood
TTITLE14=Blues in My Sleep (Foreday Blues)
TTITLE15=Dealing With the Devil
TTITLE16=You Know It Ain't Right
TTITLE17=I Need You So Bad
TTITLE18=Creeper
EXTD=
EXTT0=
EXTT1=
EXTT2=
EXTT3=
EXTT4=
EXTT5=
EXTT6=
EXTT7=
EXTT8=
EXTT9=
EXTT10=
EXTT11=
EXTT12=
EXTT13=
EXTT14=
EXTT15=
EXTT16=
EXTT17=
EXTT18=
PLAYORDER=
